<?xml version="1.0" encoding="utf-8"?>
<!-- Generator: Adobe Illustrator 28.4.1, SVG Export Plug-In . SVG Version: 6.00 Build 0)  -->
<svg version="1.1" id="Layer_1" xmlns="http://www.w3.org/2000/svg" xmlns:xlink="http://www.w3.org/1999/xlink" x="0px" y="0px"
	 viewBox="0 0 500 120" style="enable-background:new 0 0 500 120;" xml:space="preserve">
<style type="text/css">
	.st0{fill:url(#SVGID_1_);}
	.st1{fill:#4FA2DA;}
	.st2{fill:none;stroke:#62CCEF;stroke-width:0.6;stroke-miterlimit:10;}
	.st3{fill:none;stroke:#62CCEF;stroke-width:0.4294;stroke-miterlimit:10;}
	.st4{fill:none;stroke:#62CCEF;stroke-width:0.2629;stroke-miterlimit:10;}
	.st5{fill:#86C7E0;}
	.st6{fill:#A5D3E9;}
	.st7{fill:#C8E9FB;}
	.st8{fill:#E9F7FE;}
	.st9{fill:none;stroke:#3D69B2;stroke-width:0.7264;stroke-miterlimit:10;}
	.st10{fill:#54B0CC;}
	.st11{fill:#EAC37D;}
	.st12{fill:#F4D599;}
	.st13{fill:#D38D48;}
	.st14{fill:#DEA260;}
	.st15{fill:none;stroke:#FFFFFF;stroke-width:1.2364;stroke-linecap:round;stroke-miterlimit:10;}
	.st16{fill:#FFF5C1;}
	.st17{fill:#C59C7F;}
	.st18{fill:#7D7D7D;}
	.st19{fill:#AB8467;}
	.st20{enable-background:new    ;}
	.st21{fill:#F9C7DC;}
	.st22{fill:#F0659F;}
	.st23{fill:#F38DB2;}
	.st24{fill:#FFFFFF;}
	.st25{fill:#84D2DF;}
	.st26{fill:#45A1A3;}
	.st27{fill:#ACE0F1;}
	.st28{fill:#60C1C9;}
	.st29{fill:#BDB2D8;}
	.st30{fill:#C2B4D8;}
	.st31{fill:#E1D6EA;}
	.st32{fill:#D7CBE5;}
	.st33{fill:#615880;}
	.st34{fill:#9891C1;}
	.st35{fill:#EAB18B;}
	.st36{fill:#F7B1C2;}
	.st37{fill:#D0657F;}
	.st38{fill:#3E566E;}
	.st39{fill:#3D77BC;}
	.st40{fill:#F16680;}
	.st41{fill:#D99F7E;}
	.st42{fill:#52443F;}
	.st43{opacity:0.4;fill:#D29779;}
	.st44{fill:#6D5E57;}
	.st45{display:none;}
	.st46{display:inline;}
	.st47{fill:#9D83BC;}
	.st48{fill:#878787;}
	.st49{fill:#5CC5C5;}
	.st50{fill:#ABABAB;}
	.st51{fill:#8C8C8C;}
	.st52{fill:#FEEC46;}
	.st53{fill:#8E78AD;}
	.st54{fill:#EFE5F1;}
	.st55{fill:#CFD3D6;}
	.st56{fill:#B9A1CD;}
	.st57{fill:#675680;}
	.st58{fill:#69C7C1;}
	.st59{fill:#CEEBEA;}
	.st60{fill:#98D6D4;}
	.st61{fill:#3BBDA9;}
	.st62{fill:#FBD8E7;}
	.st63{fill:#F8BDD6;}
	.st64{fill:#636363;}
	.st65{fill:#4A3B61;}
	.st66{fill:#8ED2C9;}
	.st67{fill:#44B7A1;}
	.st68{fill:#7CCCC0;}
	.st69{fill:#2EA08A;}
	.st70{fill:#E26A98;}
	.st71{fill:#6B489D;}
	.st72{fill:#8165AC;}
	.st73{fill:#7955A3;}
	.st74{fill:#613F99;}
	.st75{fill:#FFFFFF;stroke:#000000;stroke-width:3;stroke-miterlimit:10;}
	.st76{fill:#6879BA;}
</style>
<g>
	<g>
		<linearGradient id="SVGID_1_" gradientUnits="userSpaceOnUse" x1="60.5572" y1="99.2605" x2="47.7135" y2="57.2506">
			<stop  offset="0" style="stop-color:#3FC6F1"/>
			<stop  offset="0.3946" style="stop-color:#3FC6F1;stop-opacity:0"/>
			<stop  offset="0.6865" style="stop-color:#3FC6F1;stop-opacity:0"/>
			<stop  offset="1" style="stop-color:#3FC6F1"/>
		</linearGradient>
		<path class="st0" d="M54.14,57.54c-17.88,0-32.37,9.28-32.37,20.72c0,11.44,14.49,20.72,32.37,20.72s32.37-9.28,32.37-20.72
			C86.51,66.81,72.01,57.54,54.14,57.54z M54.14,93.99c-13.98,0-25.32-7.25-25.32-16.2s11.34-16.2,25.32-16.2
			c13.98,0,25.32,7.25,25.32,16.2S68.12,93.99,54.14,93.99z"/>
		<path class="st1" d="M54.14,65.71c-10.83,0-19.61,5.62-19.61,12.55c0,6.93,8.78,12.55,19.61,12.55s19.61-5.62,19.61-12.55
			C73.74,71.32,64.96,65.71,54.14,65.71z M54.14,87.78c-8.47,0-15.33-4.39-15.33-9.81c0-5.42,6.87-9.81,15.33-9.81
			s15.33,4.39,15.33,9.81C69.47,83.39,62.6,87.78,54.14,87.78z"/>
		<g>
			<ellipse class="st2" cx="54.14" cy="78.76" rx="39.84" ry="25.5"/>
			<ellipse class="st3" cx="54.14" cy="78.76" rx="33.49" ry="21.44"/>
			<ellipse class="st4" cx="54.14" cy="78.37" rx="20.2" ry="13.33"/>
		</g>
	</g>
	<g>
		<path class="st5" d="M84.28,76.55L67.95,66.38l-0.45,0.79l0.26,0.97c0,0,14.38,8.35,14.41,8.35s1.1,0.12,1.1,0.12L84.28,76.55z"/>
		<polygon class="st5" points="90.44,63.72 80.51,58.1 70.74,62.22 70.12,62.97 80.73,64.07 90.02,64.07 		"/>
		<path class="st6" d="M69.69,63.27c0,0,15.37-4.98,24.36-3.93l-8.71-4.89L68.66,59.7L69.69,63.27z"/>
		<polygon class="st5" points="86.51,69.94 70.06,62.62 68.72,65.04 68.72,65.41 80.78,70.8 85.42,72.38 		"/>
		<path class="st7" d="M69.69,63.27c0,0,14.67-6.69,23.33-9.34l-7.33-4.51L67.32,60.41L69.69,63.27z"/>
		<path class="st8" d="M69.69,63.27c0,0,14.89-10.45,23.55-13.11l-7.33-4.51L67.32,60.41L69.69,63.27z"/>
		<polygon class="st6" points="67.76,66.71 85.69,73.57 86.51,69.94 68.72,65.04 		"/>
		<polygon class="st6" points="67.01,68.02 83.42,77.66 84.28,76.55 67.54,67.1 		"/>
		<g>
			<polygon class="st5" points="60.79,90.62 57.08,89.09 65.53,68.1 66.01,67.74 66.25,68.61 61.67,89.89 			"/>
			<polygon class="st6" points="66.01,67.74 67.01,68.02 62.43,90.72 60.79,90.62 			"/>
		</g>
		<polygon class="st5" points="55.64,90.66 54.05,89.96 64.72,67.56 65.41,67.56 65.53,68.1 56.45,90.66 		"/>
		<polygon class="st6" points="65.41,67.56 55.64,90.66 56.8,90.96 66.01,67.74 		"/>
		<polygon class="st5" points="51.37,89.09 44.71,85.09 60.2,67.51 63.9,67.17 59.75,78.72 52.49,89.09 		"/>
		<polygon class="st6" points="63.9,67.17 65.41,67.56 54.35,90.66 51.37,89.09 		"/>
		<polygon class="st6" points="64.02,67.04 43.88,87.49 15.1,69.03 40.1,51.32 		"/>
		<polygon class="st7" points="64.02,67.04 44.71,80.56 14.2,62.62 40.1,51.32 		"/>
		<polygon class="st9" points="64.14,67.2 67.01,68.02 68.89,64.74 67.1,65.03 63.14,66.59 63.25,66.91 		"/>
		<polygon class="st10" points="63.71,67.05 64.86,67.41 67.01,68.02 69.16,64.24 64.83,66.19 		"/>
		<polygon class="st6" points="69.16,64.02 90.11,65.18 90.44,63.72 70.12,62.97 		"/>
		<g>
			<polygon class="st11" points="67.01,64.57 42.11,71.77 10.98,53.77 35.88,46.57 			"/>
			<polygon class="st12" points="67.01,64.57 91.91,42.97 60.79,24.96 35.88,46.57 			"/>
			<g>
				<polygon class="st13" points="67.01,66.37 67.01,64.57 42.11,71.77 42.11,73.57 				"/>
				<polygon class="st14" points="42.11,73.57 10.98,55.57 10.98,53.77 42.11,71.77 				"/>
				<polygon class="st13" points="67.01,64.57 91.91,42.97 91.91,44.77 67.01,66.37 				"/>
			</g>
		</g>
	</g>
	<g>
		<g>
			<line class="st15" x1="61.03" y1="11.83" x2="61.03" y2="26.71"/>
			<g>
				<g>
					<path class="st16" d="M61.2,12.41c1.01-0.02,1.82-0.55,1.81-1.2l0.47-5.06l-4.59,0.08l0.47,5.04
						C59.36,11.91,60.19,12.42,61.2,12.41z"/>
					<path class="st17" d="M61.2,11.45c1.06-0.02,1.91-0.55,1.9-1.2l0.16-1.72c-0.13,1.46-4.03,1.41-4.15,0.08l0.16,1.69
						C59.28,10.96,60.14,11.47,61.2,11.45z"/>
					<path class="st18" d="M61.16,5.03c-1.27,0.02-2.28,0.55-2.27,1.2c0.01,0.65,1.05,1.16,2.32,1.14c1.27-0.02,2.28-0.55,2.27-1.2
						C63.46,5.52,62.42,5.01,61.16,5.03z"/>
				</g>
				<g>
					<path class="st19" d="M61.21,7.79c1.39-0.02,2.51-0.76,2.49-1.65l0-0.39l-5.03,0.11l0,0.36C58.68,7.11,59.82,7.81,61.21,7.79z"
						/>
					<path class="st17" d="M61.16,4.21c-1.39,0.02-2.51,0.76-2.49,1.65c0.01,0.89,1.15,1.59,2.54,1.57
						c1.39-0.02,2.51-0.76,2.49-1.65C63.68,4.89,62.55,4.19,61.16,4.21z"/>
				</g>
				<g>
					<path class="st19" d="M61.2,7.15c1.19-0.02,2.15-0.65,2.14-1.42l0-0.34l-4.32,0.1l0,0.31C59.03,6.57,60.01,7.17,61.2,7.15z"/>
					<path class="st17" d="M61.16,4.08c-1.19,0.02-2.15,0.65-2.14,1.42c0.01,0.76,0.99,1.37,2.19,1.35
						c1.19-0.02,2.15-0.65,2.14-1.42C63.33,4.66,62.35,4.06,61.16,4.08z"/>
				</g>
			</g>
		</g>
		<g>
			<line class="st15" x1="90.15" y1="28.38" x2="90.15" y2="42.24"/>
			<g>
				<g class="st20">
					<g>
						<polygon class="st21" points="89.62,27.66 90.1,27.38 90.17,27.42 89.69,27.7 						"/>
					</g>
					<g>
						<polygon class="st21" points="90.11,27.94 90.6,27.66 90.67,27.7 90.18,27.99 						"/>
					</g>
					<path class="st22" d="M90.18,27.99l-0.01,1.91c0,0.04-0.01,0.08-0.02,0.11c0,0,0,0,0,0c-0.01,0.03-0.03,0.05-0.06,0.07
						l0.48-0.28c0.02-0.01,0.04-0.03,0.05-0.05c0-0.01,0.01-0.01,0.01-0.02c0,0,0,0,0,0c0,0,0,0,0,0c0,0,0-0.01,0.01-0.01
						c0,0,0-0.01,0-0.02c0,0,0-0.01,0-0.01c0,0,0-0.01,0-0.01c0,0,0-0.01,0-0.01c0,0,0-0.01,0-0.01c0,0,0-0.01,0-0.01
						c0,0,0-0.01,0-0.01v0l0.01-1.91L90.18,27.99z"/>
					<g>
						<polygon class="st22" points="90.12,27.1 90.6,26.82 90.6,27.66 90.11,27.94 						"/>
					</g>
					<path class="st21" d="M90.97,26.43C90.97,26.43,90.97,26.43,90.97,26.43c-0.06,0.01-0.11,0.01-0.17,0.01c0,0,0,0,0,0
						c-0.06-0.01-0.12-0.02-0.19-0.04c0,0,0,0,0,0c-0.07-0.02-0.14-0.05-0.21-0.1c-0.07-0.04-0.14-0.09-0.2-0.14c0,0,0,0-0.01,0
						c-0.07-0.05-0.13-0.11-0.19-0.18c0,0,0,0,0,0c-0.06-0.07-0.12-0.13-0.17-0.21l0,0c-0.05-0.07-0.1-0.15-0.15-0.23
						c0,0,0-0.01-0.01-0.01c-0.04-0.08-0.09-0.16-0.12-0.24c0,0,0,0,0,0c-0.04-0.08-0.07-0.17-0.09-0.25c0,0,0,0,0,0
						c-0.03-0.09-0.05-0.17-0.06-0.26c0,0,0,0,0,0c-0.01-0.08-0.02-0.17-0.02-0.25c0-0.08,0.01-0.15,0.02-0.22c0,0,0,0,0-0.01
						c0.01-0.07,0.03-0.13,0.06-0.18c0,0,0,0,0,0c0.02-0.04,0.04-0.06,0.06-0.09c0.04-0.06,0.1-0.12,0.16-0.16l-0.48,0.28
						c-0.06,0.04-0.11,0.09-0.16,0.16c-0.01,0.01-0.01,0.01-0.02,0.02c-0.01,0.02-0.03,0.05-0.04,0.07c0,0,0,0,0,0c0,0,0,0,0,0
						c-0.01,0.02-0.02,0.04-0.02,0.05c-0.01,0.02-0.01,0.04-0.02,0.05c0,0.02-0.01,0.03-0.01,0.05c0,0.01,0,0.01,0,0.02
						c0,0,0,0,0,0.01c0,0.01,0,0.01,0,0.02c0,0.02-0.01,0.03-0.01,0.05c0,0.02,0,0.03-0.01,0.05c0,0.02,0,0.03,0,0.05
						c0,0.02,0,0.03,0,0.05c0,0,0,0,0,0c0,0.02,0,0.03,0,0.05c0,0.02,0,0.03,0,0.05c0,0.02,0,0.03,0,0.05c0,0.02,0,0.03,0.01,0.05
						c0,0.02,0,0.03,0.01,0.05c0,0,0,0,0,0c0,0,0,0,0,0c0,0.02,0.01,0.03,0.01,0.05c0,0.02,0.01,0.04,0.01,0.05
						c0,0.02,0.01,0.04,0.01,0.05c0,0.02,0.01,0.04,0.01,0.05c0,0.02,0.01,0.03,0.01,0.05c0,0,0,0,0,0c0,0,0,0,0,0.01
						c0.01,0.02,0.01,0.04,0.02,0.05c0.01,0.02,0.01,0.04,0.02,0.05c0.01,0.02,0.01,0.03,0.02,0.05c0.01,0.02,0.01,0.03,0.02,0.05
						c0.01,0.01,0.01,0.03,0.02,0.04c0,0,0,0,0,0c0,0,0,0,0,0.01c0.01,0.02,0.01,0.03,0.02,0.05c0.01,0.02,0.02,0.04,0.03,0.05
						c0.01,0.02,0.02,0.04,0.03,0.06c0.01,0.02,0.03,0.05,0.04,0.07c0,0,0,0.01,0,0.01c0,0,0,0.01,0.01,0.01
						c0.03,0.04,0.05,0.09,0.08,0.13c0.02,0.03,0.04,0.06,0.07,0.09l0,0l0,0c0.01,0.02,0.03,0.04,0.05,0.06
						c0.01,0.02,0.03,0.03,0.04,0.05c0.01,0.02,0.03,0.03,0.04,0.05c0.01,0.02,0.03,0.03,0.04,0.04c0,0,0.01,0.01,0.01,0.01
						c0,0,0,0,0,0c0.01,0.01,0.02,0.02,0.03,0.03c0.01,0.01,0.03,0.03,0.04,0.04c0.01,0.01,0.03,0.03,0.05,0.04
						c0.02,0.01,0.03,0.03,0.05,0.04c0.01,0.01,0.02,0.01,0.02,0.02c0,0,0,0,0,0c0.01,0,0.01,0.01,0.02,0.01
						c0.01,0.01,0.03,0.02,0.04,0.03c0.01,0.01,0.03,0.02,0.04,0.03c0.01,0.01,0.03,0.02,0.04,0.03c0.01,0.01,0.03,0.02,0.04,0.03
						c0,0,0.01,0,0.01,0.01c0.01,0.01,0.02,0.01,0.03,0.02c0.01,0.01,0.03,0.01,0.04,0.02c0.01,0.01,0.03,0.01,0.04,0.02
						c0.01,0.01,0.03,0.01,0.04,0.02c0.01,0.01,0.03,0.01,0.04,0.02c0,0,0.01,0,0.01,0c0,0,0,0,0,0c0.01,0,0.02,0.01,0.03,0.01
						c0.01,0,0.03,0.01,0.04,0.01c0.01,0,0.03,0.01,0.04,0.01c0.02,0,0.03,0.01,0.05,0.01c0.01,0,0.02,0,0.03,0c0,0,0,0,0,0
						c0,0,0.01,0,0.01,0c0.02,0,0.03,0,0.05,0c0.02,0,0.04,0,0.05,0c0.02,0,0.04,0,0.06-0.01c0,0,0,0,0,0c0,0,0,0,0,0
						c0.02,0,0.05-0.01,0.07-0.02c0.03-0.01,0.06-0.02,0.08-0.04l0.48-0.28C91.07,26.39,91.02,26.41,90.97,26.43z"/>
					<g>
						<path class="st23" d="M91.3,26.2c0,0.8-0.52,1.17-1.19,0.9l0,0.85l0.07,0.04l-0.01,1.91c0,0.18-0.13,0.25-0.29,0.16
							c-0.16-0.09-0.28-0.31-0.28-0.49l0.01-1.91l0.07,0.04l0-0.85c-0.67-0.5-1.18-1.46-1.18-2.26c0-0.89,0.63-1.25,1.4-0.8
							C90.68,24.23,91.31,25.31,91.3,26.2z M89.9,26.58c0.57,0.33,1.03,0.07,1.03-0.59c0-0.65-0.46-1.45-1.03-1.78
							c-0.56-0.33-1.03-0.07-1.03,0.59C88.88,25.45,89.34,26.25,89.9,26.58"/>
					</g>
					<path class="st21" d="M91.79,25.86c0-0.02,0-0.04,0-0.07c0-0.02,0-0.05-0.01-0.07c0-0.02,0-0.05-0.01-0.07
						c0-0.02-0.01-0.05-0.01-0.07c0,0,0,0,0,0c0,0,0,0,0,0c0-0.02-0.01-0.04-0.01-0.07c0-0.02-0.01-0.05-0.01-0.07
						c-0.01-0.02-0.01-0.05-0.02-0.07c-0.01-0.02-0.01-0.05-0.02-0.07c-0.01-0.02-0.01-0.04-0.02-0.06c0,0,0,0,0,0
						c0,0,0-0.01,0-0.01c-0.01-0.02-0.02-0.05-0.02-0.07c-0.01-0.02-0.02-0.05-0.02-0.07c-0.01-0.02-0.02-0.05-0.03-0.07
						c-0.01-0.02-0.02-0.05-0.03-0.07c-0.01-0.02-0.01-0.03-0.02-0.05c0,0,0,0,0,0c0,0,0-0.01,0-0.01
						c-0.01-0.02-0.02-0.05-0.03-0.07c-0.01-0.02-0.02-0.05-0.04-0.07c-0.01-0.03-0.03-0.06-0.04-0.08
						c-0.02-0.03-0.03-0.06-0.05-0.09c0,0-0.01-0.01-0.01-0.01c0-0.01-0.01-0.01-0.01-0.02c-0.03-0.06-0.07-0.11-0.1-0.17
						c-0.03-0.04-0.06-0.08-0.09-0.13c0,0,0,0,0,0c0,0,0,0,0,0c-0.02-0.03-0.04-0.05-0.06-0.08c-0.02-0.02-0.04-0.04-0.05-0.07
						c-0.02-0.02-0.04-0.04-0.05-0.06c-0.02-0.02-0.04-0.04-0.05-0.06c0,0-0.01-0.01-0.01-0.01c0,0,0,0,0,0
						c-0.01-0.02-0.03-0.03-0.04-0.04c-0.02-0.02-0.04-0.04-0.06-0.06c-0.02-0.02-0.04-0.04-0.06-0.06
						c-0.02-0.02-0.04-0.04-0.06-0.05c-0.01-0.01-0.02-0.02-0.03-0.03c0,0,0,0-0.01-0.01c-0.01-0.01-0.02-0.01-0.02-0.02
						c-0.02-0.02-0.04-0.03-0.06-0.05c-0.02-0.01-0.04-0.03-0.06-0.04c-0.02-0.01-0.04-0.03-0.06-0.04
						c-0.02-0.01-0.04-0.02-0.06-0.04c0,0-0.01-0.01-0.01-0.01c-0.01-0.01-0.03-0.02-0.04-0.02c-0.02-0.01-0.04-0.02-0.06-0.03
						c-0.02-0.01-0.04-0.02-0.06-0.03c-0.02-0.01-0.04-0.02-0.06-0.02c-0.02-0.01-0.04-0.01-0.06-0.02c0,0-0.01,0-0.01,0
						c0,0,0,0,0,0c-0.01,0-0.03-0.01-0.04-0.01c-0.02-0.01-0.04-0.01-0.06-0.02c-0.02,0-0.04-0.01-0.06-0.01
						c-0.02,0-0.04-0.01-0.06-0.01c-0.01,0-0.03,0-0.04,0c0,0,0,0-0.01,0c0,0-0.01,0-0.01,0c-0.02,0-0.04,0-0.07,0
						c-0.02,0-0.05,0-0.07,0c-0.03,0-0.05,0.01-0.08,0.01c0,0,0,0,0,0c0,0,0,0,0,0c-0.03,0.01-0.06,0.01-0.09,0.03
						c-0.04,0.01-0.08,0.03-0.11,0.05l-0.48,0.28c0.06-0.04,0.13-0.06,0.2-0.08c0,0,0,0,0,0c0.07-0.01,0.15-0.02,0.23-0.01
						c0,0,0,0,0.01,0c0.08,0.01,0.17,0.03,0.26,0.06c0,0,0,0,0,0c0.09,0.03,0.18,0.07,0.28,0.13c0.1,0.05,0.19,0.12,0.28,0.19
						c0,0,0,0,0.01,0.01c0.09,0.07,0.17,0.15,0.26,0.24c0,0,0,0,0,0c0.08,0.09,0.16,0.18,0.23,0.28c0,0,0,0,0,0
						c0.07,0.1,0.14,0.2,0.2,0.31c0,0,0.01,0.01,0.01,0.01c0.06,0.11,0.12,0.21,0.16,0.33c0,0,0,0,0,0
						c0.05,0.11,0.09,0.23,0.13,0.34c0,0,0,0,0,0c0.03,0.12,0.06,0.23,0.08,0.35c0,0,0,0,0,0c0.02,0.12,0.03,0.23,0.03,0.34
						c0,0.11-0.01,0.21-0.03,0.3c0,0,0,0.01,0,0.01c-0.02,0.09-0.04,0.17-0.08,0.24c0,0,0,0,0,0.01c-0.02,0.05-0.05,0.09-0.08,0.13
						c-0.06,0.09-0.13,0.16-0.21,0.21l0.48-0.28c0.08-0.05,0.15-0.12,0.21-0.21c0.01-0.01,0.02-0.02,0.03-0.03
						c0.02-0.03,0.04-0.06,0.05-0.09c0,0,0,0,0-0.01c0,0,0,0,0-0.01c0.01-0.02,0.02-0.05,0.03-0.07c0.01-0.02,0.02-0.05,0.02-0.07
						c0.01-0.02,0.01-0.05,0.02-0.07c0-0.01,0-0.02,0.01-0.03c0,0,0-0.01,0-0.01c0-0.01,0-0.02,0.01-0.03
						c0-0.02,0.01-0.04,0.01-0.07c0-0.02,0-0.04,0.01-0.07c0-0.02,0-0.04,0-0.07c0-0.02,0-0.04,0-0.07c0,0,0,0,0,0
						C91.79,25.9,91.79,25.88,91.79,25.86z"/>
				</g>
			</g>
			<g>
				<path class="st24" d="M89.63,43.08c-0.01,0-0.02,0-0.03,0c-0.08-0.02-0.13-0.09-0.12-0.17c0.05-0.25,0.26-0.77,0.63-0.82
					c0.25-0.04,0.48,0.15,0.69,0.55c0.04,0.07,0.01,0.16-0.06,0.2c-0.07,0.04-0.16,0.01-0.2-0.06c-0.14-0.26-0.27-0.41-0.38-0.39
					c-0.15,0.02-0.33,0.34-0.38,0.59C89.76,43.03,89.7,43.08,89.63,43.08z"/>
			</g>
		</g>
		<g>
			<line class="st15" x1="80.66" y1="22.68" x2="80.66" y2="36.94"/>
			<g>
				<polygon class="st25" points="82.39,22.6 82.39,16.46 78.97,18.44 78.97,24.58 				"/>
				<polygon class="st26" points="82.2,17.92 82.2,16.87 79.16,18.63 79.16,19.69 				"/>
				<polygon class="st26" points="79.77,20.48 79.77,19.88 79.28,20.16 79.28,20.76 				"/>
				<polygon class="st26" points="80.38,20.12 80.38,19.52 79.89,19.8 79.89,20.4 				"/>
				<polygon class="st26" points="80.99,19.76 80.99,19.16 80.5,19.44 80.5,20.04 				"/>
				<polygon class="st26" points="81.6,19.4 81.6,18.8 81.11,19.09 81.11,19.68 				"/>
				<polygon class="st26" points="82.21,19.04 82.21,18.44 81.72,18.73 81.72,19.33 				"/>
				<polygon class="st26" points="79.77,21.3 79.77,20.7 79.28,20.98 79.28,21.58 				"/>
				<polygon class="st26" points="80.38,20.94 80.38,20.34 79.89,20.62 79.89,21.22 				"/>
				<polygon class="st26" points="80.99,20.58 80.99,19.98 80.5,20.26 80.5,20.86 				"/>
				<polygon class="st26" points="81.6,20.22 81.6,19.62 81.11,19.9 81.11,20.5 				"/>
				<polygon class="st26" points="79.77,22.11 79.77,21.52 79.28,21.8 79.28,22.4 				"/>
				<polygon class="st26" points="80.38,21.76 80.38,21.16 79.89,21.44 79.89,22.04 				"/>
				<polygon class="st26" points="80.99,21.4 80.99,20.8 80.5,21.08 80.5,21.68 				"/>
				<polygon class="st26" points="81.6,21.04 81.6,20.44 81.11,20.72 81.11,21.32 				"/>
				<polygon class="st26" points="82.21,20.68 82.21,19.31 81.72,19.59 81.72,20.96 				"/>
				<polygon class="st26" points="79.77,22.93 79.77,22.33 79.28,22.62 79.28,23.22 				"/>
				<polygon class="st26" points="80.38,22.57 80.38,21.98 79.89,22.26 79.89,22.86 				"/>
				<polygon class="st26" points="80.99,22.22 80.99,21.62 80.5,21.9 80.5,22.5 				"/>
				<polygon class="st26" points="81.6,21.86 81.6,21.26 81.11,21.54 81.11,22.14 				"/>
				<polygon class="st26" points="80.99,23.01 80.99,22.42 79.28,23.44 79.28,24.03 				"/>
				<polygon class="st26" points="81.6,22.68 81.6,22.08 81.11,22.36 81.11,22.96 				"/>
				<polygon class="st26" points="82.21,22.32 82.21,20.93 81.72,21.21 81.72,22.6 				"/>
				<polygon class="st27" points="78.97,18.44 78.65,18.26 82.07,16.28 82.39,16.46 				"/>
				<polygon class="st28" points="78.65,18.26 78.65,24.4 78.97,24.58 78.97,18.44 				"/>
			</g>
			<g>
				<path class="st24" d="M80.19,37.82c-0.01,0-0.02,0-0.03,0c-0.08-0.02-0.13-0.09-0.12-0.17c0.05-0.25,0.26-0.77,0.63-0.82
					c0.25-0.04,0.48,0.15,0.69,0.55c0.04,0.07,0.01,0.16-0.06,0.2c-0.07,0.04-0.16,0.01-0.2-0.06c-0.14-0.26-0.27-0.41-0.38-0.39
					c-0.15,0.02-0.33,0.34-0.38,0.59C80.32,37.77,80.25,37.82,80.19,37.82z"/>
			</g>
		</g>
		<g>
			<line class="st15" x1="70.51" y1="16.9" x2="70.51" y2="30.99"/>
			<g>
				<path class="st29" d="M72.84,9.78l-0.09-0.05c0,0-0.01,0-0.01-0.01l0,0l0,0c-0.04-0.02-0.09-0.02-0.13,0l-4.65,2.69
					c-0.14,0.08-0.23,0.24-0.23,0.4v3.38c0,0.09,0.04,0.16,0.11,0.2l0,0l0.01,0c0,0,0.01,0,0.01,0.01l0.09,0.05l0.05-0.11
					l-0.04-0.02l4.5-2.6c0.15-0.09,0.24-0.25,0.24-0.42V9.86l0.15-0.02L72.84,9.78z"/>
				<path class="st30" d="M76,15.7L76,15.7l0-0.11l-0.15,0.03v0.06l-2.71-1.57c-0.14-0.08-0.31-0.08-0.44,0l-4.62,2.67
					c-0.01-0.04-0.02-0.07-0.02-0.07c0,0-0.08-0.04-0.08-0.04v0.12l0,0c0,0.05,0.03,0.11,0.08,0.14l2.79,1.61
					c0.13,0.08,0.29,0.08,0.42,0l4.65-2.69C75.98,15.82,76.01,15.76,76,15.7z"/>
				<path class="st31" d="M68.06,16.52l4.64-2.68c0.14-0.08,0.31-0.08,0.44,0l2.79,1.61c0.11,0.06,0.11,0.21,0,0.28l-4.65,2.69
					c-0.13,0.08-0.29,0.08-0.42,0l-2.79-1.61C67.95,16.74,67.95,16.59,68.06,16.52z"/>
				<path class="st32" d="M67.82,16.25v-3.38c0-0.17,0.09-0.32,0.23-0.4l4.65-2.69c0.09-0.05,0.21,0.01,0.21,0.12v3.54
					c0,0.17-0.09,0.33-0.24,0.42l-4.5,2.61C68.01,16.55,67.82,16.44,67.82,16.25z"/>
				<polygon class="st33" points="68.03,16.36 68.03,12.66 72.76,9.92 72.76,13.62 				"/>
				<g>
					<polygon class="st34" points="69.24,16.49 68.97,16.65 68.81,16.56 69.09,16.4 					"/>
					<polygon class="st34" points="69.68,16.68 69.36,16.87 69.06,16.71 69.39,16.52 					"/>
					<polygon class="st34" points="70.09,16.45 69.76,16.64 69.47,16.47 69.8,16.28 					"/>
					<polygon class="st34" points="70.5,16.21 70.17,16.4 69.88,16.23 70.21,16.04 					"/>
					<polygon class="st34" points="70.91,15.97 70.58,16.16 70.29,15.99 70.62,15.8 					"/>
					<polygon class="st34" points="71.32,15.73 70.99,15.92 70.7,15.75 71.02,15.56 					"/>
					<polygon class="st34" points="71.73,15.49 71.4,15.68 71.11,15.51 71.43,15.32 					"/>
					<polygon class="st34" points="72.14,15.25 71.81,15.44 71.52,15.28 71.84,15.08 					"/>
					<polygon class="st34" points="72.55,15.01 72.22,15.21 71.93,15.04 72.25,14.85 					"/>
					<polygon class="st34" points="71.1,16.75 70.78,16.94 70.48,16.77 70.81,16.58 					"/>
					<polygon class="st34" points="71.51,16.51 71.19,16.7 70.89,16.53 71.22,16.34 					"/>
					<polygon class="st34" points="71.92,16.27 71.6,16.46 71.3,16.29 71.63,16.1 					"/>
					<polygon class="st34" points="72.33,16.03 72,16.22 71.71,16.06 72.04,15.87 					"/>
					<polygon class="st34" points="72.74,15.8 72.41,15.99 72.12,15.82 72.45,15.63 					"/>
					<polygon class="st34" points="73.31,15.46 72.82,15.75 72.53,15.58 73.02,15.29 					"/>
					<polygon class="st34" points="72.95,14.78 72.63,14.97 72.34,14.8 72.66,14.61 					"/>
					<polygon class="st34" points="73.37,14.53 73.05,14.72 72.75,14.55 73.08,14.37 					"/>
					<polygon class="st34" points="70.07,16.91 69.74,17.1 69.45,16.93 69.77,16.74 					"/>
					<polygon class="st34" points="70.48,16.67 70.15,16.86 69.86,16.69 70.18,16.5 					"/>
					<polygon class="st34" points="70.84,17.35 70.51,17.54 70.22,17.37 70.55,17.18 					"/>
					<polygon class="st34" points="71.25,17.11 70.92,17.3 70.63,17.13 70.96,16.94 					"/>
					<polygon class="st34" points="73.7,15.68 71.34,17.06 71.05,16.89 73.41,15.51 					"/>
					<polygon class="st34" points="70.89,16.43 70.56,16.62 70.27,16.45 70.59,16.26 					"/>
					<polygon class="st34" points="71.3,16.19 70.97,16.38 70.68,16.21 71,16.02 					"/>
					<polygon class="st34" points="71.71,15.95 71.38,16.14 71.08,15.97 71.41,15.78 					"/>
					<polygon class="st34" points="72.11,15.71 71.79,15.9 71.49,15.74 71.82,15.54 					"/>
					<polygon class="st34" points="72.52,15.47 72.2,15.67 71.9,15.5 72.23,15.31 					"/>
					<polygon class="st34" points="72.93,15.24 72.61,15.43 72.31,15.26 72.64,15.07 					"/>
					<polygon class="st34" points="73.75,14.76 73.02,15.19 72.72,15.02 73.46,14.59 					"/>
					<polygon class="st34" points="74.14,14.98 73.36,15.43 73.07,15.26 73.85,14.81 					"/>
					<polygon class="st34" points="74.53,15.2 73.75,15.65 73.6,15.57 74.38,15.12 					"/>
					<polygon class="st34" points="74.27,15.35 74.01,15.5 73.71,15.34 73.98,15.18 					"/>
					<polygon class="st34" points="70.7,16.98 70.13,17.32 69.83,17.15 70.41,16.82 					"/>
					<polygon class="st34" points="69.62,16.27 69.34,16.44 69.19,16.35 69.46,16.19 					"/>
					<polygon class="st34" points="69.99,16.06 69.72,16.22 69.56,16.13 69.84,15.97 					"/>
					<polygon class="st34" points="70.36,15.84 70.09,16 69.93,15.91 70.21,15.75 					"/>
					<polygon class="st34" points="70.74,15.62 70.46,15.78 70.31,15.69 70.58,15.53 					"/>
					<polygon class="st34" points="71.11,15.4 70.84,15.56 70.68,15.48 70.96,15.31 					"/>
					<polygon class="st34" points="71.49,15.19 71.21,15.35 71.06,15.26 71.33,15.1 					"/>
					<polygon class="st34" points="71.86,14.97 71.58,15.13 71.43,15.04 71.7,14.88 					"/>
					<polygon class="st34" points="72.23,14.75 71.96,14.91 71.8,14.82 72.08,14.66 					"/>
					<polygon class="st34" points="72.61,14.53 72.33,14.69 72.18,14.6 72.45,14.44 					"/>
					<polygon class="st34" points="72.98,14.31 72.7,14.48 72.55,14.39 72.82,14.23 					"/>
				</g>
			</g>
			<g>
				<path class="st24" d="M69.99,31.87c-0.01,0-0.02,0-0.03,0c-0.08-0.02-0.13-0.09-0.12-0.17c0.05-0.25,0.26-0.77,0.63-0.82
					c0.25-0.04,0.48,0.15,0.69,0.55c0.04,0.07,0.01,0.16-0.06,0.2c-0.07,0.04-0.16,0.01-0.2-0.06c-0.14-0.26-0.27-0.41-0.38-0.39
					c-0.15,0.02-0.33,0.34-0.38,0.59C70.12,31.82,70.06,31.87,69.99,31.87z"/>
			</g>
		</g>
	</g>
	<g>
		<g>
			<path class="st35" d="M63.05,25.72l-5.14,9.47l-6.39,3.35c-0.18,0.09-0.38,0.14-0.57,0.14c-0.51,0-1.01-0.32-1.18-0.88
				c-0.18-0.57,0.12-1.19,0.65-1.46l5.73-3l5.81-8.18c-0.07-0.27-0.32-0.5-0.22-0.74c0.1-0.24,0.16-1.21,0.1-1.46
				c-0.07-0.25,0.78-0.4,0.46,0.87c0.12,0.05,0.91-1.11,1.02-1.79c0.01-0.09,0.1-0.13,0.18-0.1c0.42,0.15,1.43,0.6,1.33,1.23
				c-0.13,0.78-0.83,1.76-1.04,2.11C63.57,25.63,63.05,25.72,63.05,25.72z"/>
		</g>
		<path class="st36" d="M54.96,37.27c0.21-0.18-0.29-3.17-0.74-3.03l-2.86,1.36c-1.19,0.47-0.87,2.07-0.46,2.65
			c0.31,0.44,1.04,0.51,1.94,0C53.8,37.71,54.96,37.27,54.96,37.27z"/>
		<path class="st37" d="M41.52,39.99c-0.36,0.29,0.04,3.12,1.04,2.81c0.62-0.44,0.74-1.47,0.74-1.47l-1.13-1.48
			C42.17,39.85,41.81,39.86,41.52,39.99z"/>
		<path class="st38" d="M51.65,57.25c-0.11,0.22,0,0.26,0,0.3c0,0.04-0.4,1.91-0.48,3.33c-0.02,0.58-0.67,0.75-1.38,0.81
			c-0.12-1.35-0.17-3.26-0.15-3.72s0.64-1.14,0.83-1.21C50.67,56.69,51.59,57.1,51.65,57.25z"/>
		<path class="st39" d="M52.19,48.51c0,0,6.85,0.77,7.29,2.38c0.53,1.94-6.25,4.82-6.74,5.44c-0.07-0.42-0.97-0.83-1.38-0.72
			c0,0,2.07-2.41,3.68-3.32c-1.2,0.43-2.2,0.48-4.55,0.15c-2.79-1.04-1.36-1.1-1.36-1.1l0.48-1.9L52.19,48.51z"/>
		<path class="st38" d="M55.46,53.83c0,0,1.44-0.6,1.83-0.67c0.39-0.07,3.08,2.19,3.51,2.96c-0.26,0.52-1.2,0.53-1.76,0.2
			c-0.56-0.32-1.34-0.78-1.63-0.94c-0.29-0.17-1.06,0.31-1.06,0.31l-0.89-0.94V53.83z"/>
		<path class="st39" d="M44.67,48.21c-1.46,4.23,1.12,7.77,3.08,9.73c0.28,0.27,0.66,0.4,1.05,0.35c3.14-0.38,7.15-1.59,8.17-2.35
			c0.53-0.32-0.34-2.17-0.94-2.36c-0.6-0.19-4.44,1.34-5.54,1.41c-0.16-1.73-0.19-2.91-0.19-2.91c-0.34-2.23,0.01-1.84-0.96-2.3
			C48.35,49.31,45.2,47.5,44.67,48.21z"/>
		<path class="st40" d="M46.94,36.74c-1.39,0.72-3.04,1.1-3.46,2.38c-0.34,1.04,0.42,2.78,0.45,4.98c0.02,1.33-0.04,4.61-0.06,6.23
			c1.78,2.16,6.87,1.02,9.13-1.55c-0.77-3.29,0.76-10.3-1.25-12.34C51.06,36.08,49.36,35.47,46.94,36.74z"/>
		<g>
			<path class="st35" d="M51.04,37.74c0.12,0.82-0.84,1.64-2.14,1.82c-1.3,0.19-2.45-0.33-2.56-1.15c-0.12-0.82,0.84-1.64,2.14-1.82
				C49.78,36.4,50.93,36.92,51.04,37.74z"/>
			<path class="st35" d="M47.5,34.98c0,0-0.05,1.15-0.45,2.35c0.45,0.86,2.63,1.56,3.04,0.64c0,0-0.02-0.85,0.37-1.42
				C50.85,35.98,47.5,34.98,47.5,34.98z"/>
			<path class="st41" d="M47.5,34.98c0,0-0.01,0.22-0.05,0.57c0.6,1.43,1.69,1.95,2.65,2.16c0.02-0.3,0.1-0.79,0.36-1.16
				C50.85,35.98,47.5,34.98,47.5,34.98z"/>
			<g>
				<g>
					<path class="st35" d="M50.99,30.31c0,0,0.84,1.1,1.01,2.4c-0.03,0.18,0.31,0.47,0.33,1.2c0.02,0.53,0.05,1.6,0.07,2.15
						c0.01,0.2-0.12,0.39-0.31,0.45c-1.02,0.32-2.68,0.65-4.13-0.85c0,0-0.68-0.61-0.96-0.66c-0.28-0.05-1.54-1.28-1.68-2.39
						c-0.16-1.17,0.26-3.04,2.66-3.36C49.94,29,50.99,30.31,50.99,30.31z"/>
				</g>
				<path class="st42" d="M47.25,34.92c-0.29-0.2-1.42-1.34-1.95-1.88c0.53,2.18,2.48,2.09,2.71,3.15l-0.03-0.69l-0.54-0.83
					L47.25,34.92z"/>
				<g>
					<path class="st43" d="M47.34,34.11c-0.52-0.42-1.05,0.07-0.6,0.59c0.1,0.11,0.29,0.16,0.36,0.27c0.04,0.06,0.09,0.11,0.13,0.15
						c0.12,0.07,0.24,0.17,0.36,0.26c0.13,0.03,0.22-0.04,0.3-0.15L47.34,34.11z"/>
					<path class="st35" d="M47.7,34.09c-0.37-0.56-1.02-0.26-0.75,0.38c0.06,0.14,0.22,0.24,0.26,0.36
						c0.21,0.62,0.45,0.65,0.66,0.49"/>
				</g>
				<path class="st44" d="M45.08,32.47c-0.02-0.33-0.18-0.81,0.22-1.27c0.17-1.37,1.31-1.94,2.53-2.09
					c1.32-0.16,1.91,0.78,3.81-0.24c0.65,0.28,0.22,1.91-0.21,2.08c-0.12,0.08-1.97,2.07-3.86,0.96c1.08,0.63,0.01,1.8,0.48,2.65
					c-0.18,0.11-0.39-0.52-0.7-0.46c-0.31,0.06,0,0.42,0,0.42l0.64,0.97l0.03,0.69C47.76,35.03,45.69,35.42,45.08,32.47z"/>
			</g>
		</g>
		<g>
			<path class="st35" d="M30.86,44.87l8.9-1.07l5.16-2.41c0.62-0.28,0.9-1,0.62-1.62c-0.28-0.62-0.75-0.91-1.37-0.63l-4.93,2.41
				l-8.62,2.05c-0.22-0.73-1.23-0.44-1.71-0.9c-0.34-0.28-0.67,0.63,0.25,0.83c0.22,0.1-0.54,0.24-1.19,0.25
				c-0.65,0.01-0.47,1.64-0.26,1.86c0.19,0.2,2.32,0.11,2.74-0.16C30.87,45.2,30.86,44.87,30.86,44.87z"/>
		</g>
		<path class="st36" d="M41.51,40c0.42-0.14,1.46,2.32,1.04,2.81l2.77-1.47c1.13-0.59,0.51-2.46,0.04-2.98
			c-0.36-0.4-1.09-0.39-1.93,0.22C42.54,39.22,41.51,40,41.51,40z"/>
	</g>
	<g class="st45">
		<g class="st46">
			<g>
				<path class="st47" d="M47.77,28.08c0.49,0,0.83-0.35,0.89-0.76c-0.09-0.48,0.29-1.08,0.29-1.08l-2.34,0.02
					c0,0,0.32,0.51,0.27,1.07C46.93,27.74,47.28,28.08,47.77,28.08z"/>
				<path class="st48" d="M47.79,25.51c-0.65,0-1.17,0.34-1.17,0.75c0,0.41,0.53,0.75,1.17,0.75c0.65,0,1.17-0.34,1.17-0.75
					C48.96,25.84,48.43,25.51,47.79,25.51z"/>
			</g>
			<g>
				<path class="st49" d="M47.78,27.54c0.74,0,1.33-0.39,1.33-0.86l0.02-1.6l-2.66,0.02l-0.02,1.58
					C46.45,27.16,47.05,27.54,47.78,27.54z"/>
				<path class="st50" d="M47.8,24.26c-0.74,0-1.33,0.39-1.33,0.86c0,0.47,0.6,0.85,1.33,0.85c0.74,0,1.33-0.39,1.33-0.86
					C49.13,24.64,48.54,24.26,47.8,24.26z"/>
			</g>
			<g>
				<path class="st51" d="M49.71,25.66l0-0.02l0,0C49.71,25.65,49.71,25.65,49.71,25.66z"/>
			</g>
			<path class="st52" d="M51.28,20.92c0.02-1.74-1.48-3.44-3.37-3.47c-1.88-0.03-3.43,1.64-3.45,3.38c0,0.03,0,0.06,0,0.09l0,0
				c-0.04,3,2.03,3.55,2.01,4.45l0,0c0,0.01,0,0.01,0,0.02c0,0.43,0.6,0.78,1.33,0.78c0.72,0,1.31-0.34,1.32-0.77l0,0
				c0.01-0.9,2.11-1.39,2.15-4.39l0,0C51.28,20.98,51.28,20.95,51.28,20.92z"/>
			<path class="st24" d="M49.65,18.93c0,0.33-0.27,0.59-0.6,0.59c-0.33,0-0.59-0.27-0.59-0.6c0-0.33,0.27-0.59,0.6-0.59
				C49.39,18.33,49.65,18.6,49.65,18.93z"/>
		</g>
	</g>
	<g>
		<g>
			<line class="st15" x1="42.11" y1="56.06" x2="42.11" y2="69.96"/>
			<g>
				<g>
					<polygon class="st53" points="39.32,50.41 42.66,48.48 42.66,50.25 39.32,51.46 					"/>
					<path class="st54" d="M39.38,50.46l3.19-1.84c0,0,0.29,0.24,0.67,0.39l-3.21,1.87c0,0-0.67-0.07-0.67-0.4L39.38,50.46z"/>
					<path class="st55" d="M40.02,50.81"/>
					<path class="st56" d="M42.66,48.48l-3.29,1.9c0.04,0.32,0.64,0.37,0.64,0.37l3.29-1.9l0.06,0.03l-3.34,2.01
						c0,0-0.77-0.06-0.77-0.52l3.34-1.93L42.66,48.48z"/>
					<polygon class="st53" points="40.02,56.31 40.02,50.81 43.36,48.88 43.36,54.38 					"/>
					<path class="st57" d="M39.25,50.37c0.05,0.39,0.77,0.44,0.77,0.44l0,5.5c0,0-0.72-0.05-0.77-0.44L39.25,50.37z"/>
				</g>
				<g>
					<polygon class="st58" points="40.54,50.16 43.88,48.23 43.88,50.01 40.54,51.21 					"/>
					<path class="st59" d="M40.6,50.21l3.19-1.84c0,0,0.29,0.24,0.67,0.39l-3.21,1.87c0,0-0.67-0.07-0.67-0.4L40.6,50.21z"/>
					<path class="st55" d="M41.24,50.57"/>
					<path class="st60" d="M43.88,48.23l-3.29,1.9c0.04,0.32,0.64,0.37,0.64,0.37l3.29-1.9l0.06,0.03l-3.34,2.01
						c0,0-0.77-0.06-0.77-0.52l3.34-1.93L43.88,48.23z"/>
					<polygon class="st58" points="41.24,56.06 41.24,50.57 44.58,48.64 44.58,54.13 					"/>
					<path class="st61" d="M40.47,50.12c0.05,0.39,0.77,0.44,0.77,0.44l0,5.5c0,0-0.72-0.05-0.77-0.44L40.47,50.12z"/>
				</g>
				<g>
					<polygon class="st23" points="40.92,51.54 44.26,49.61 44.26,51.39 40.92,52.59 					"/>
					<path class="st62" d="M40.98,51.59l3.19-1.84c0,0,0.29,0.24,0.67,0.39L41.62,52c0,0-0.67-0.07-0.67-0.4L40.98,51.59z"/>
					<path class="st55" d="M41.63,51.95"/>
					<path class="st63" d="M44.26,49.61l-3.29,1.9c0.04,0.32,0.64,0.37,0.64,0.37l3.29-1.9l0.06,0.03l-3.34,2.01
						c0,0-0.77-0.06-0.77-0.52l3.34-1.93L44.26,49.61z"/>
					<polygon class="st23" points="41.62,57.44 41.63,51.95 44.96,50.02 44.96,55.51 					"/>
					<path class="st22" d="M40.86,51.5c0.05,0.39,0.77,0.44,0.77,0.44l0,5.5c0,0-0.72-0.05-0.77-0.44L40.86,51.5z"/>
				</g>
			</g>
			<g>
				<path class="st24" d="M41.68,70.82c-0.01,0-0.02,0-0.03,0c-0.08-0.02-0.13-0.09-0.12-0.17c0.05-0.25,0.26-0.77,0.63-0.82
					c0.25-0.04,0.48,0.15,0.69,0.55c0.04,0.07,0.01,0.16-0.06,0.2c-0.07,0.04-0.16,0.01-0.2-0.06c-0.14-0.26-0.27-0.41-0.38-0.39
					c-0.15,0.02-0.33,0.34-0.38,0.59C41.81,70.77,41.75,70.82,41.68,70.82z"/>
			</g>
		</g>
		<g>
			<line class="st15" x1="32.62" y1="50.37" x2="32.62" y2="64.64"/>
			<g>
				<g>
					<path class="st53" d="M32.9,52.08c1.36-0.02,2.45-0.75,2.44-1.62l0-3.31l-4.93,0.11l0,3.28C30.43,51.41,31.54,52.1,32.9,52.08z
						"/>
					<path class="st64" d="M32.85,45.65c-1.36,0.02-2.45,0.75-2.44,1.62c0.01,0.87,1.13,1.56,2.49,1.54s2.45-0.75,2.44-1.62
						C35.32,46.31,34.21,45.62,32.85,45.65z"/>
				</g>
				<g>
					<polygon class="st53" points="32.96,44.38 28.05,47.22 32.96,50.06 37.87,47.22 					"/>
					<polygon class="st65" points="37.87,47.22 37.87,47.34 32.96,50.18 32.96,50.06 					"/>
					<polygon class="st57" points="32.96,50.18 28.05,47.34 28.05,47.22 32.96,50.06 					"/>
				</g>
				<path class="st65" d="M28.9,47.06c-0.09,0-0.19,0.04-0.25,0.12c-0.06,0.06-0.13,0.18-0.13,0.39v1.05
					c-0.07,0.03-0.11,0.09-0.11,0.17v1.33c0,0.1,0.08,0.18,0.18,0.18c0.1,0,0.18-0.08,0.18-0.18v-1.33c0-0.08-0.06-0.15-0.13-0.17
					v-1.05c0-0.13,0.03-0.24,0.1-0.31c0.05-0.05,0.11-0.08,0.17-0.08c0.04,0,0.08,0.01,0.08,0.04c0,0.03,0.03,0.06,0.06,0.06
					c0.03,0,0.06-0.03,0.06-0.06C29.1,47.12,29.02,47.06,28.9,47.06z"/>
			</g>
			<g>
				<path class="st24" d="M32.08,65.52c-0.01,0-0.02,0-0.03,0c-0.08-0.02-0.13-0.09-0.12-0.17c0.05-0.25,0.26-0.77,0.63-0.82
					c0.25-0.04,0.48,0.15,0.69,0.55c0.04,0.07,0.01,0.16-0.06,0.2c-0.07,0.04-0.16,0.01-0.2-0.06c-0.14-0.26-0.27-0.41-0.38-0.39
					c-0.15,0.02-0.33,0.34-0.38,0.59C32.21,65.47,32.15,65.52,32.08,65.52z"/>
			</g>
		</g>
		<g>
			<line class="st15" x1="22.47" y1="44.58" x2="22.47" y2="58.98"/>
			<g>
				<path class="st66" d="M20.38,40.44c1.1-1.85,2.94-2.78,4.12-2.08l0.54,0.31l-4.01,6.68l-0.5-0.29
					C19.35,44.36,19.28,42.29,20.38,40.44z"/>
				
					<ellipse transform="matrix(0.5088 -0.8609 0.8609 0.5088 -24.8502 40.4395)" class="st67" cx="23.01" cy="42" rx="3.89" ry="2.49"/>
				<path class="st68" d="M24.89,43.11c-0.96,1.63-2.58,2.44-3.62,1.83c-1.04-0.62-1.1-2.43-0.13-4.06
					c0.96-1.63,2.58-2.44,3.62-1.83C25.79,39.67,25.85,41.49,24.89,43.11z"/>
				<path class="st69" d="M24.76,39.05c-0.04-0.02-0.08-0.04-0.12-0.06c0.92,0.68,0.95,2.42,0.02,3.98
					c-0.93,1.56-2.46,2.38-3.5,1.89c0.04,0.03,0.07,0.06,0.11,0.08c1.04,0.62,2.66-0.2,3.62-1.83S25.79,39.67,24.76,39.05z"/>
				<g>
					<g>
						<path class="st53" d="M23.19,42.04c-0.02,0-0.03,0-0.05-0.01c-0.05-0.03-0.07-0.09-0.04-0.15l1.32-2.47
							c0.03-0.05,0.09-0.07,0.15-0.05c0.05,0.03,0.07,0.09,0.04,0.15l-1.32,2.47C23.26,42.02,23.23,42.04,23.19,42.04z"/>
					</g>
					<g>
						<path class="st53" d="M22.57,44.34c-0.01,0-0.02,0-0.03,0c-0.06-0.02-0.09-0.08-0.08-0.13l0.62-2.3
							c0.02-0.06,0.07-0.09,0.13-0.08c0.06,0.02,0.09,0.08,0.08,0.13l-0.62,2.3C22.66,44.31,22.62,44.34,22.57,44.34z"/>
					</g>
				</g>
				<g>
					<path class="st70" d="M22.87,41.9c0.13-0.22,0.35-0.33,0.49-0.25l0.06,0.04l-0.48,0.8l-0.06-0.03
						C22.75,42.37,22.74,42.12,22.87,41.9z"/>
					<path class="st23" d="M23.44,42.24c-0.13,0.22-0.35,0.33-0.49,0.25c-0.14-0.08-0.15-0.33-0.02-0.55
						c0.13-0.22,0.35-0.33,0.49-0.25C23.57,41.77,23.57,42.02,23.44,42.24z"/>
				</g>
				<g>
					<g>
						<path class="st70" d="M23.1,40.24c-0.03,0.01-0.05,0-0.05-0.03v-0.75c0-0.03,0.02-0.07,0.05-0.09c0.03-0.01,0.05,0,0.05,0.03
							v0.75C23.15,40.18,23.13,40.22,23.1,40.24z"/>
					</g>
					<g>
						<path class="st70" d="M22.43,40.86c-0.02,0.01-0.03,0.01-0.04-0.01l-0.29-0.48c-0.01-0.02-0.01-0.06,0.02-0.09
							c0.02-0.03,0.05-0.04,0.06-0.01l0.29,0.48c0.01,0.02,0.01,0.06-0.02,0.09C22.44,40.85,22.43,40.86,22.43,40.86z"/>
					</g>
					<g>
						<path class="st70" d="M21.93,41.79c-0.01,0-0.02,0.01-0.02,0.01l-0.5-0.09c-0.02,0-0.03-0.04-0.02-0.07
							c0.01-0.04,0.04-0.06,0.06-0.06l0.5,0.09c0.02,0,0.03,0.04,0.02,0.07C21.96,41.76,21.95,41.78,21.93,41.79z"/>
					</g>
					<g>
						<path class="st70" d="M21.75,42.77l-0.58,0.33c-0.03,0.01-0.05,0-0.05-0.03c0-0.03,0.02-0.07,0.05-0.09l0.58-0.33
							c0.03-0.01,0.05,0,0.05,0.03S21.77,42.76,21.75,42.77z"/>
					</g>
					<g>
						<path class="st70" d="M21.43,44.21c-0.02,0.01-0.03,0.01-0.04-0.01c-0.01-0.02-0.01-0.06,0.02-0.09l0.5-0.66
							c0.02-0.03,0.05-0.04,0.06-0.01c0.01,0.02,0.01,0.06-0.02,0.09l-0.5,0.66C21.45,44.2,21.44,44.2,21.43,44.21z"/>
					</g>
					<g>
						<path class="st70" d="M22.14,44.72c-0.01,0-0.02,0.01-0.02,0.01c-0.02,0-0.03-0.04-0.02-0.07l0.29-0.81
							c0.01-0.04,0.04-0.06,0.06-0.06c0.02,0,0.03,0.04,0.02,0.07l-0.29,0.81C22.17,44.69,22.15,44.71,22.14,44.72z"/>
					</g>
					<g>
						<path class="st70" d="M23.1,44.5c-0.03,0.01-0.05,0-0.05-0.03v-0.75c0-0.03,0.02-0.07,0.05-0.09c0.03-0.01,0.05,0,0.05,0.03
							v0.75C23.15,44.44,23.13,44.48,23.1,44.5z"/>
					</g>
					<g>
						<path class="st70" d="M24.07,43.6c-0.02,0.01-0.03,0.01-0.04-0.01l-0.29-0.48c-0.01-0.02-0.01-0.06,0.02-0.09
							c0.02-0.03,0.05-0.04,0.06-0.01l0.29,0.48c0.01,0.02,0.01,0.06-0.02,0.09C24.09,43.59,24.08,43.6,24.07,43.6z"/>
					</g>
					<g>
						<path class="st70" d="M24.78,42.28c-0.01,0-0.02,0.01-0.02,0.01l-0.5-0.09c-0.02,0-0.03-0.04-0.02-0.07
							c0.01-0.04,0.04-0.06,0.06-0.06l0.5,0.09c0.02,0,0.03,0.04,0.02,0.07C24.81,42.25,24.79,42.27,24.78,42.28z"/>
					</g>
					<g>
						<path class="st70" d="M25.04,40.88l-0.58,0.33c-0.03,0.01-0.05,0-0.05-0.03c0-0.03,0.02-0.07,0.05-0.09l0.58-0.33
							c0.03-0.01,0.05,0,0.05,0.03S25.06,40.86,25.04,40.88z"/>
					</g>
					<g>
						<path class="st70" d="M24.28,40.44c-0.02,0.01-0.03,0.01-0.04-0.01c-0.01-0.02-0.01-0.06,0.02-0.09l0.5-0.66
							c0.02-0.03,0.05-0.04,0.06-0.01c0.01,0.02,0.01,0.06-0.02,0.09l-0.5,0.66C24.29,40.43,24.29,40.43,24.28,40.44z"/>
					</g>
					<g>
						<path class="st70" d="M23.78,40.08c-0.01,0-0.02,0.01-0.02,0.01c-0.02,0-0.03-0.04-0.02-0.07l0.29-0.81
							c0.01-0.04,0.04-0.06,0.06-0.06c0.02,0,0.03,0.04,0.02,0.07l-0.29,0.81C23.81,40.05,23.8,40.07,23.78,40.08z"/>
					</g>
				</g>
			</g>
			<g>
				<path class="st24" d="M22.01,59.82c-0.01,0-0.02,0-0.03,0c-0.08-0.02-0.13-0.09-0.12-0.17c0.05-0.25,0.26-0.77,0.63-0.82
					c0.25-0.04,0.48,0.15,0.69,0.55c0.04,0.07,0.01,0.16-0.06,0.2c-0.07,0.04-0.16,0.01-0.2-0.06c-0.14-0.26-0.27-0.41-0.38-0.39
					c-0.15,0.02-0.33,0.34-0.38,0.59C22.14,59.77,22.08,59.82,22.01,59.82z"/>
			</g>
		</g>
		<g>
			<line class="st15" x1="12.98" y1="39.52" x2="12.98" y2="53.5"/>
			<g>
				<g>
					<path class="st21" d="M11.06,35.22c1.07-1.81,2.88-2.73,4.04-2.04l0.46,0.27L11.63,40l-0.42-0.25
						C10.05,39.06,9.98,37.03,11.06,35.22z"/>
					<path class="st23" d="M15.67,37.96c-1.07,1.81-2.88,2.73-4.04,2.04c-1.16-0.69-1.22-2.72-0.15-4.53
						c1.07-1.81,2.88-2.73,4.04-2.04S16.75,36.14,15.67,37.96z"/>
				</g>
				<g>
					<g class="st20">
						<g>
							<polygon class="st71" points="14.76,35.88 14.45,35.69 14.45,36.45 14.77,36.63 							"/>
						</g>
						<g>
							<polygon class="st72" points="15.81,34.82 15.49,34.64 14.84,35.02 15.15,35.2 							"/>
						</g>
						<g>
							<polygon class="st71" points="14.11,35.81 13.79,35.62 13.79,36.07 14.11,36.26 							"/>
						</g>
						<g>
							<polygon class="st72" points="14.76,35.43 14.45,35.24 13.79,35.62 14.11,35.81 							"/>
						</g>
						<g>
							<polygon class="st71" points="14.76,34.68 14.44,34.49 14.45,35.24 14.76,35.43 							"/>
						</g>
						<g>
							<polygon class="st72" points="15.15,34.45 14.83,34.27 14.44,34.49 14.76,34.68 							"/>
						</g>
						<g>
							<polygon class="st73" points="14.76,34.68 14.76,35.43 14.11,35.81 14.11,36.26 14.76,35.88 14.77,36.63 15.16,36.4 
								15.15,35.65 15.81,35.27 15.81,34.82 15.15,35.2 15.15,34.45 							"/>
						</g>
					</g>
					<g class="st20">
						<g>
							<polygon class="st72" points="12.51,35.39 12.19,35.2 11.96,35.42 12.28,35.6 							"/>
						</g>
						<g>
							<polygon class="st71" points="12.28,35.6 11.96,35.42 12.58,36.89 12.89,37.07 							"/>
						</g>
						<g>
							<polygon class="st73" points="12.51,35.39 12.28,35.6 12.89,37.07 13.12,36.86 							"/>
						</g>
					</g>
					<g class="st20">
						<g>
							<polygon class="st74" points="13.15,38.56 12.84,38.38 13.19,38.75 13.51,38.94 							"/>
						</g>
						<g>
							<polygon class="st71" points="12.86,38.39 12.54,38.2 11.96,39.46 12.28,39.65 							"/>
						</g>
						<g>
							<polygon class="st72" points="13.95,36.94 13.64,36.76 13.09,37.08 13.4,37.26 							"/>
						</g>
						<g>
							<polygon class="st71" points="13.4,37.26 13.09,37.08 12.82,37.7 13.14,37.89 							"/>
						</g>
						<g>
							<polygon class="st74" points="12.36,37.86 12.05,37.68 12.54,38.2 12.86,38.39 							"/>
						</g>
						<g>
							<polygon class="st72" points="12.88,37.56 12.56,37.38 12.05,37.68 12.36,37.86 							"/>
						</g>
						<g>
							<polygon class="st73" points="12.36,37.86 12.86,38.39 12.28,39.65 12.83,39.33 13.15,38.56 13.51,38.94 14.05,38.62 
								13.45,38.04 13.95,36.94 13.4,37.26 13.14,37.89 12.88,37.56 							"/>
						</g>
					</g>
					<g class="st20">
						<g>
							<polygon class="st71" points="14.48,37.86 14.16,37.67 14.16,38.16 14.48,38.34 							"/>
						</g>
						<g>
							<polygon class="st72" points="15.34,37.36 15.02,37.17 14.16,37.67 14.48,37.86 							"/>
						</g>
						<g>
							<polygon class="st73" points="14.48,37.86 14.48,38.34 15.34,37.84 15.34,37.36 							"/>
						</g>
					</g>
				</g>
			</g>
			<g>
				<path class="st24" d="M12.46,54.4c-0.01,0-0.02,0-0.03,0c-0.08-0.02-0.13-0.09-0.12-0.17c0.05-0.25,0.26-0.77,0.63-0.82
					c0.25-0.04,0.48,0.15,0.69,0.55c0.04,0.07,0.01,0.16-0.06,0.2c-0.07,0.04-0.16,0.01-0.2-0.06c-0.14-0.26-0.27-0.41-0.38-0.39
					c-0.15,0.02-0.33,0.34-0.38,0.59C12.59,54.35,12.53,54.4,12.46,54.4z"/>
			</g>
		</g>
	</g>
</g>
<g>
	<path class="st75" d="M187.73,73.6c0,0.66-0.33,1.04-0.99,1.14c-0.66,0.1-2.37,0.15-5.15,0.15c-2.96,0-4.79-0.07-5.5-0.22
		s-1.06-0.65-1.06-1.5c0-1.15,0.04-2.88,0.11-5.2s0.11-4.07,0.11-5.24c0-0.9-0.02-2.25-0.07-4.05c-0.05-1.79-0.07-3.14-0.07-4.05
		c0-3.34-1.4-5.02-4.19-5.02c-0.92,0-1.99,0.42-3.21,1.25c-1.32,0.93-1.97,1.84-1.97,2.75v19.78c0,0.8-0.36,1.26-1.09,1.35
		c-0.82,0.1-2.5,0.15-5.04,0.15c-2.75,0-4.54-0.07-5.36-0.22c-0.73-0.12-1.09-0.52-1.09-1.21c0-1.9,0.01-4.77,0.04-8.61
		c0.02-3.83,0.04-6.71,0.04-8.64c0-6.08-0.46-10.85-1.37-14.32c-0.05-0.22-0.07-0.4-0.07-0.55c0-0.39,0.18-0.66,0.53-0.81
		c1.48-0.17,3.45-0.44,5.92-0.81c3.74-0.76,5.84-1.14,6.31-1.14c0.26,0,0.46,0.82,0.6,2.47c0.14,1.65,0.34,2.47,0.6,2.47
		c-0.26,0,1-0.85,3.79-2.54c2.78-1.7,5.22-2.55,7.31-2.55c2.98,0,5.48,0.73,7.47,2.2c2.23,1.68,3.35,4.03,3.35,7.03v11.68
		c0,1.59,0.01,3.96,0.04,7.12S187.73,72.02,187.73,73.6z"/>
	<path class="st75" d="M217.2,63.94c0,0.73-0.09,1.84-0.26,3.33s-0.26,2.58-0.26,3.28c0,0.7-0.07,1.14-0.21,1.34
		s-0.53,0.48-1.16,0.84c-3.03,1.73-6.39,2.6-10.08,2.6c-6.79,0-10.19-2.7-10.19-8.09c0-1.61,0.06-4.03,0.18-7.27
		c0.12-3.23,0.18-5.66,0.18-7.27c0-1.07-0.6-1.61-1.8-1.61c-0.09,0-0.25,0-0.46,0c-0.21,0.02-0.36,0.04-0.46,0.04
		c-0.89,0-1.34-0.33-1.34-0.99c0-0.39,0.03-0.99,0.09-1.79s0.09-1.4,0.09-1.79c0-0.51-0.03-1.29-0.09-2.34
		c-0.06-1.05-0.09-1.83-0.09-2.34c0-0.49,0.75-0.76,2.26-0.81c0.85-0.02,1.3-0.27,1.38-0.73c0.14-0.93,0.19-2.39,0.14-4.39
		c-0.09-3.15-0.14-4.65-0.14-4.5c0-2.83,0.26-4.25,0.78-4.25c0.63,0,1.54,0.15,2.71,0.44c1.34,0.32,2.27,0.5,2.79,0.55
		c1.2,0.17,3.01,0.4,5.43,0.7c0.59,0.05,0.88,0.26,0.88,0.62c0,0.98-0.08,2.45-0.23,4.43c-0.15,1.98-0.23,3.47-0.23,4.47
		c0,1.2,0.34,1.79,1.02,1.79c0.82,0,2.07-0.04,3.74-0.11c1.67-0.07,2.93-0.11,3.77-0.11c0.52,0,0.78,0.18,0.78,0.55
		c0,0.56-0.06,1.4-0.18,2.53c-0.12,1.12-0.18,1.97-0.18,2.53c0,0.59,0.01,1.44,0.04,2.56c0.02,1.12,0.04,1.98,0.04,2.56
		c0,0.51-0.34,0.77-1.02,0.77c-0.47,0-1.26-0.02-2.36-0.05c-1.1-0.04-1.89-0.06-2.36-0.06h-2.64c-0.35,0-0.53,0.54-0.53,1.61
		c0,0.59,0,1.45,0,2.6c0.02,1.17,0.04,2.04,0.04,2.6c0,2.05,0.22,3.47,0.67,4.25c0.63,1.05,1.88,1.57,3.74,1.57
		c0.59,0,1.43-0.14,2.52-0.42s1.86-0.42,2.31-0.42C216.95,63.13,217.2,63.4,217.2,63.94z"/>
	<path class="st75" d="M244.27,51.85c0,0.95-0.51,1.43-1.52,1.43c-0.45,0-1.1-0.03-1.96-0.09c-0.86-0.06-1.5-0.09-1.92-0.09
		c-1.95,0-3.28,0.32-3.98,0.95c-0.71,0.64-1.06,1.92-1.06,3.85c0,1.05,0.02,2.64,0.05,4.78c0.04,2.14,0.05,3.73,0.05,4.78
		c0,0.71,0.05,1.76,0.14,3.17c0.09,1.4,0.14,2.45,0.14,3.13c0,0.59-0.39,0.92-1.16,0.99c-1.13,0.1-2.85,0.15-5.18,0.15
		c-2.23,0-4.02-0.07-5.36-0.22c-0.78-0.1-1.16-0.5-1.16-1.21c0-1.95,0.01-4.88,0.04-8.77c0.02-3.89,0.04-6.82,0.04-8.77
		c0-5.74-0.51-10.46-1.52-14.17c-0.05-0.22-0.07-0.4-0.07-0.55c0-0.37,0.18-0.61,0.53-0.73c1.29-0.15,3.18-0.42,5.68-0.81
		c3.71-0.76,5.63-1.14,5.75-1.14c0.42,0,0.69,0.77,0.81,2.31c0.12,1.54,0.33,2.31,0.63,2.31c-0.33,0,0.63-0.64,2.89-1.92
		c2.26-1.28,4.43-1.92,6.52-1.92c1.32,0,1.97,0.29,1.97,0.88c0,0.71-0.07,1.71-0.21,3c-0.14,1.39-0.22,2.39-0.25,3
		c0,0.71,0.01,1.65,0.04,2.82C244.25,50.44,244.27,51.39,244.27,51.85z"/>
	<path class="st75" d="M283.82,56.36c0,1.88,0.11,4.68,0.32,8.39c0.21,3.71,0.32,6.49,0.32,8.35c0,0.98-0.41,1.5-1.23,1.57
		c-2.91,0.22-6.25,0.33-10.01,0.33c-0.45,0-0.75-0.7-0.9-2.11c-0.15-1.4-0.33-2.12-0.55-2.14c-0.19,0.1-0.44,0.3-0.74,0.62
		c-2.63,2.76-5.45,4.14-8.46,4.14c-4.58,0-8.38-1.88-11.39-5.64c-2.84-3.52-4.27-7.71-4.27-12.6c0-5.64,1.47-10.18,4.41-13.62
		c3.05-3.56,7.24-5.35,12.55-5.35c3.69,0,6.6,1.34,8.74,4.03c0.09,0.12,0.18,0.18,0.25,0.18c0.21,0,0.45-0.59,0.72-1.78
		c0.27-1.18,0.59-1.78,0.97-1.78c0.87,0,2.53,0.26,4.97,0.77c2.33,0.49,3.99,0.9,5,1.25c0.35,0.15,0.53,0.34,0.53,0.59
		c0,0.1-0.04,0.35-0.11,0.77C284.19,46.75,283.82,51.42,283.82,56.36z M272.47,56.58c0-2.07-0.63-3.79-1.89-5.15
		c-1.26-1.35-2.9-2.03-4.92-2.03s-3.65,0.67-4.9,2.01c-1.25,1.34-1.87,3.06-1.87,5.16c0,1.98,0.66,3.67,1.97,5.09
		c1.32,1.42,2.91,2.12,4.79,2.12c2,0,3.63-0.68,4.9-2.03C271.83,60.4,272.47,58.68,272.47,56.58z"/>
	<path class="st75" d="M325.87,73.6c0,0.66-0.33,1.04-0.99,1.14c-0.66,0.1-2.37,0.15-5.15,0.15c-2.96,0-4.79-0.07-5.5-0.22
		s-1.06-0.65-1.06-1.5c0-1.15,0.04-2.88,0.11-5.2s0.11-4.07,0.11-5.24c0-0.9-0.02-2.25-0.07-4.05c-0.05-1.79-0.07-3.14-0.07-4.05
		c0-3.34-1.4-5.02-4.19-5.02c-0.92,0-1.99,0.42-3.21,1.25c-1.32,0.93-1.97,1.84-1.97,2.75v19.78c0,0.8-0.37,1.26-1.09,1.35
		c-0.82,0.1-2.5,0.15-5.04,0.15c-2.75,0-4.54-0.07-5.36-0.22c-0.73-0.12-1.09-0.52-1.09-1.21c0-1.9,0.01-4.77,0.04-8.61
		c0.02-3.83,0.04-6.71,0.04-8.64c0-6.08-0.46-10.85-1.38-14.32c-0.05-0.22-0.07-0.4-0.07-0.55c0-0.39,0.18-0.66,0.53-0.81
		c1.48-0.17,3.46-0.44,5.92-0.81c3.74-0.76,5.84-1.14,6.31-1.14c0.26,0,0.46,0.82,0.6,2.47c0.14,1.65,0.34,2.47,0.6,2.47
		c-0.26,0,1-0.85,3.79-2.54c2.78-1.7,5.22-2.55,7.31-2.55c2.98,0,5.47,0.73,7.47,2.2c2.23,1.68,3.35,4.03,3.35,7.03v11.68
		c0,1.59,0.01,3.96,0.04,7.12S325.87,72.02,325.87,73.6z"/>
	<path class="st75" d="M355.09,50.57c-0.02,0-0.73-0.2-2.13-0.59c-1.4-0.39-2.53-0.59-3.4-0.59c-2.09,0-3.76,0.65-5,1.96
		c-1.25,1.31-1.87,3.05-1.87,5.22c0,2.25,0.68,4.01,2.04,5.29c1.36,1.28,3.14,1.92,5.32,1.92c1.03,0,2.2-0.27,3.49-0.82
		c1.29-0.55,1.9-0.82,1.83-0.82c0.4,0,0.92,1.55,1.55,4.65c0.54,2.83,0.81,4.71,0.81,5.64c0,0.93-1.46,1.72-4.37,2.38
		c-2.26,0.51-4.08,0.77-5.46,0.77c-5.17,0-9.44-1.81-12.8-5.42s-5.04-8.12-5.04-13.51c0-5.35,1.69-9.84,5.06-13.5
		c3.37-3.65,7.63-5.47,12.78-5.47c3.5,0,6.58,0.78,9.24,2.34c0.61,0.34,0.92,0.67,0.92,0.99c0,0.32-0.35,1.76-1.06,4.32
		c-0.66,2.47-1.09,3.96-1.29,4.47C355.51,50.31,355.3,50.57,355.09,50.57z"/>
	<path class="st75" d="M394.08,54.78c0,2.47-0.76,3.87-2.29,4.21c-0.26,0.05-2.69,0.32-7.3,0.81c-2.77,0.32-6.91,0.7-12.41,1.14
		c0.33,1.59,1.33,2.79,3,3.62c1.36,0.68,2.91,1.03,4.65,1.03c2.09,0,4.19-0.59,6.31-1.76c0.89-0.59,1.79-1.17,2.68-1.76
		c0.49,0.24,1.32,1.49,2.49,3.74s1.75,3.67,1.75,4.28c0,0.17-0.18,0.45-0.53,0.84c-2.87,3.2-7.32,4.8-13.36,4.8
		c-5.59,0-10.11-1.7-13.54-5.09c-3.52-3.44-5.29-8.04-5.29-13.81c0-5.62,1.57-10.22,4.72-13.81c3.24-3.71,7.54-5.57,12.9-5.57
		c4.51,0,8.34,1.71,11.49,5.13C392.5,46,394.08,50.07,394.08,54.78z M381.74,52.55c0-1.51-0.52-2.84-1.55-3.99
		c-1.03-1.15-2.27-1.72-3.7-1.72c-1.48,0-2.7,0.65-3.67,1.94c-0.89,1.2-1.34,2.6-1.34,4.21c0,0.66,0.33,0.99,0.99,0.99
		c1.74,0,4.44-0.28,8.11-0.84C381.35,53.01,381.74,52.82,381.74,52.55z"/>
</g>
<g>
	<path class="st76" d="M157.92,21.28v4.12c0,1.7-0.26,2.77-0.79,3.21c-0.53,0.45-2.46,1.64-5.8,3.57c-3.34,1.94-6.55,4.22-9.62,6.85
		c1.18-2.18,2.26-3.8,3.24-4.85c0.98-1.05,2.29-2.36,3.96-3.94c-1.44-0.73-3.44-1.09-6-1.09c-3.97,0-8.24,0.99-12.83,2.97
		c-4.59,1.98-8.49,4.34-11.71,7.09c-3.21,2.75-4.82,5.05-4.82,6.91c0,0.97,0.49,1.77,1.46,2.39c0.98,0.63,2.54,1.11,4.7,1.45
		c2.16,0.34,4.85,0.58,8.08,0.7c3.23,0.12,7.21,0.18,11.95,0.18c3.45,0,5.68,0.16,6.67,0.48c0.99,0.32,1.49,1.07,1.49,2.24
		c0,1.49-0.58,3.2-1.75,5.12c-1.17,1.92-2.71,3.06-4.63,3.42c-2.97,0.61-5.34,1.12-7.1,1.54c-1.76,0.42-3.85,1.14-6.26,2.15
		c-2.42,1.01-5.09,2.46-8.04,4.36c-4.38,2.91-7.8,5.86-10.27,8.85c-2.46,2.99-3.69,5.63-3.69,7.94c0,1.98,0.88,3.52,2.64,4.63
		c1.76,1.11,4.29,1.67,7.58,1.67c11.35,0,22.92-6.44,34.69-19.33c0.06,3.96-0.28,7.44-1.03,10.45c-0.75,3.01-2.28,5.89-4.58,8.63
		c-1.92,2.3-4.73,4.5-8.42,6.6s-7.72,3.78-12.09,5.03c-4.37,1.25-8.47,1.88-12.31,1.88c-4.45,0-8.12-1.34-11.03-4.03
		c-2.91-2.69-4.37-6.25-4.37-10.69c0-3.23,0.7-6.44,2.11-9.63c1.41-3.19,3.57-6.25,6.48-9.18c2.91-2.93,6.6-5.58,11.06-7.97
		c4.46-2.38,9.6-4.26,15.42-5.63c0.83-0.2,1.25-0.52,1.25-0.97c0-0.48-0.49-0.78-1.46-0.88c-0.98-0.1-2.77-0.17-5.37-0.21
		c-2.61-0.04-4.9-0.18-6.88-0.42c-1.98-0.24-4.08-0.77-6.28-1.58c-2.27-0.89-4.02-2.44-5.25-4.67c-1.23-2.22-1.85-4.69-1.85-7.39
		c0-3.47,0.99-6.97,2.97-10.48c1.98-3.51,4.78-6.68,8.4-9.51c3.61-2.83,7.99-5.1,13.12-6.82c5.13-1.72,10.75-2.57,16.86-2.57
		c3.52,0,5.97,0.25,7.36,0.76c1.39,0.51,2.2,1.17,2.42,2C157.81,17.47,157.92,19.02,157.92,21.28z"/>
</g>
<g>
	<path class="st76" d="M406.95,62.21c0,0.84-0.21,1.58-0.63,2.2c0.15,0.25,0.37,0.63,0.66,1.15c0.29,0.52,0.51,0.95,0.68,1.29
		s0.25,0.69,0.25,1.03c0,0.44-0.36,1.29-1.09,2.55s-2.03,3.34-3.91,6.23s-3.75,5.76-5.59,8.6l2.17,1.41
		c3.62-2.38,6.76-4.97,9.41-7.78v3.38c-2.38,3-4.81,5.69-7.28,8.06c0.24,1.31,0.36,2.14,0.36,2.48c0,3.12-1.43,6.69-4.3,10.69
		c-2.87,4-6.11,7.52-9.73,10.57c-3.62,3.05-6.14,4.57-7.56,4.57c-2.23,0-3.35-2.05-3.35-6.14c0-1.25,0.87-3.42,2.62-6.52
		c1.75-3.09,4.22-6.99,7.42-11.7s7.25-10.57,12.17-17.6c-5.91,6-9.62,9.73-11.11,11.2s-2.96,2.73-4.39,3.77s-2.72,1.57-3.87,1.57
		c-1.15,0-2.22-0.67-3.21-2.02c-1-1.34-1.79-2.94-2.38-4.78c-0.59-1.84-0.88-3.45-0.88-4.83c0-1.62,0.19-2.97,0.57-4.03
		s1.12-2.28,2.24-3.66c2.47-3.22,5.44-5.98,8.89-8.3c3.45-2.31,6.9-4.02,10.34-5.13c3.44-1.11,6.41-1.66,8.91-1.66
		C406.09,58.83,406.95,59.96,406.95,62.21z M380.12,85.36c1.27,0,2.83-0.53,4.68-1.59c1.85-1.06,3.87-2.61,6.04-4.64
		c2.65-2.47,4.97-4.74,6.95-6.82s3.46-3.75,4.46-5.02c1-1.27,1.49-1.99,1.49-2.18c0-0.28-0.12-0.42-0.36-0.42
		c-0.97,0-2.96,0.66-5.97,1.99c-3.02,1.33-6.09,3-9.23,5.02c-3.14,2.02-5.52,4.01-7.15,5.98c-0.63,0.78-1.18,1.91-1.63,3.4
		s-0.68,2.46-0.68,2.93C378.72,84.91,379.19,85.36,380.12,85.36z M393.33,91.5c-2.17,3.28-4.32,7.01-6.45,11.18
		s-3.19,6.59-3.19,7.24c0,0.44,0.22,0.62,0.66,0.56s1.12-0.31,2.06-0.75c1.96-0.91,4.21-3.05,6.74-6.42
		c1.72-2.34,2.84-4.27,3.37-5.79c0.53-1.52,0.9-3.24,1.11-5.18C395.82,92.66,394.39,92.38,393.33,91.5z"/>
	<path class="st76" d="M430.03,76.03c-4.37,6-7.7,10.27-9.98,12.8s-4.14,3.8-5.59,3.8c-1.15,0-2.2-0.49-3.17-1.48
		c-0.97-0.98-1.71-2.31-2.24-3.98c-0.53-1.67-0.79-3.46-0.79-5.37c0-1.25,0.11-2.38,0.34-3.38c0.23-1,0.66-2.1,1.29-3.3
		s1.47-2.51,2.51-3.91c1.04-1.41,2.31-3,3.82-4.78c0.91-1.09,1.67-2.02,2.29-2.77s1.22-1.26,1.81-1.52c0.59-0.27,1.55-0.4,2.87-0.4
		c0.97,0,1.88,0.13,2.76,0.4c0.87,0.27,1.31,0.54,1.31,0.82c0,0.56-0.45,1.58-1.33,3.05c-0.89,1.47-2.32,3.26-4.3,5.37
		s-4.26,4.18-6.85,6.21c-0.57,1.84-0.86,3.25-0.86,4.22c0,1.34,0.5,2.02,1.49,2.02c0.36,0,0.97-0.32,1.81-0.96
		c0.84-0.64,2.27-1.88,4.28-3.7c2.01-1.83,3.81-3.45,5.41-4.85c1.18-1.06,2.54-2.65,4.09-4.76c1.55-2.11,2.81-3.7,3.78-4.76
		c2.23-2.44,3.76-4.02,4.57-4.76c0.81-0.73,1.6-1.1,2.35-1.1c0.72,0,1.21,0.23,1.47,0.7c0.26,0.47,0.38,1.42,0.38,2.86
		c0,0.66-0.06,1.19-0.18,1.59s-0.37,0.93-0.75,1.57c-0.38,0.64-1.14,1.82-2.29,3.54s-2.5,3.75-4.07,6.09
		c-0.84,1.25-1.58,2.62-2.22,4.1s-0.95,2.6-0.95,3.35c0,1.62,0.62,2.44,1.86,2.44c1.02,0,2.22-0.44,3.57-1.31s3.44-2.45,6.24-4.73
		v3.14c-3.53,3.38-6.14,5.83-7.83,7.36s-3.15,2.69-4.39,3.47c-1.24,0.78-2.41,1.17-3.53,1.17c-2.53,0-3.8-1.56-3.8-4.69
		c0-1.19,0.38-2.79,1.13-4.8C427.12,82.76,428.34,79.85,430.03,76.03z"/>
	<path class="st76" d="M466,79.22v3.42c-2.93,3.91-5.66,6.85-8.19,8.84c-2.53,1.98-4.69,2.98-6.47,2.98c-2.47,0-4.31-1.34-5.52-4.03
		c-1.21-2.69-1.81-5.62-1.81-8.81c0-1.22,0.12-2.38,0.36-3.49s0.53-2.02,0.86-2.74c0.33-0.72,0.95-1.84,1.85-3.38
		c4.28-6.91,8.2-10.36,11.76-10.36c1.84,0,2.76,0.73,2.76,2.2c0,1-0.6,2.56-1.79,4.69c-1.19,2.12-2.26,3.64-3.19,4.55
		c-2.62,2.62-4.34,4.45-5.13,5.48c-0.8,1.03-1.2,2.2-1.2,3.52c0,1.12,0.41,2.06,1.22,2.81s1.87,1.12,3.17,1.12
		c1.42,0,2.98-0.54,4.68-1.62S463.28,81.6,466,79.22z M462.92,58.27c-0.75,0-1.47-0.3-2.15-0.89c-0.68-0.59-1.02-1.34-1.02-2.25
		c0-1.38,0.63-2.91,1.9-4.59s2.58-2.53,3.94-2.53c0.91,0,1.66,0.29,2.26,0.87c0.6,0.58,0.91,1.41,0.91,2.51
		c0,1.34-0.62,2.83-1.86,4.45C465.67,57.46,464.34,58.27,462.92,58.27z"/>
</g>
<g>
	<path class="st76" d="M460.27,94.09l1.5-4.7l24.58-22.49c-0.88,0.06-1.55,0.09-1.99,0.09c-0.81,0-2.32-0.13-4.52-0.4l-3.57-0.4
		c-1.15-0.15-2.13-0.23-2.94-0.23c-2.69,0-5.41,1.15-8.16,3.46l0.49-2.51c3.96-3.46,7.5-5.19,10.63-5.19c0.85,0,1.84,0.08,3,0.23
		l2.48,0.32c1.27,0.15,2.38,0.23,3.34,0.23c2.67,0,5.03-0.36,7.09-1.09l-1.5,4.79l-23.28,22.03c1.15-0.12,2.09-0.17,2.82-0.17
		c1.42,0,2.54,0.06,3.37,0.17l1.9,0.29c1.31,0.19,2.58,0.29,3.83,0.29c4.4,0,8.15-1.41,11.27-4.24l-0.55,2.77
		c-4.11,4.26-7.95,6.4-11.52,6.4c-0.87,0-2.18-0.1-3.95-0.29l-2.07-0.2c-1.25-0.13-2.74-0.2-4.47-0.2
		C465.07,93.02,462.48,93.38,460.27,94.09z"/>
</g>
</svg>
